<mxfile host="app.diagrams.net" modified="2021-04-01T10:19:30.197Z" agent="5.0 (Windows NT 10.0; Win64; x64) AppleWebKit/537.36 (KHTML, like Gecko) Chrome/89.0.4389.90 Safari/537.36" etag="JWyz980jl26r-AJEccHS" version="14.5.4" type="github">
  <diagram id="C5RBs43oDa-KdzZeNtuy" name="Page-1">
    <mxGraphModel dx="1038" dy="580" grid="1" gridSize="10" guides="1" tooltips="1" connect="1" arrows="1" fold="1" page="1" pageScale="1" pageWidth="827" pageHeight="1169" math="0" shadow="0">
      <root>
        <mxCell id="WIyWlLk6GJQsqaUBKTNV-0" />
        <mxCell id="WIyWlLk6GJQsqaUBKTNV-1" parent="WIyWlLk6GJQsqaUBKTNV-0" />
        <mxCell id="n-XF2BE4U9RYRbTGCvOX-34" value="" style="group" vertex="1" connectable="0" parent="WIyWlLk6GJQsqaUBKTNV-1">
          <mxGeometry x="160" y="180.00000000000003" width="380" height="640" as="geometry" />
        </mxCell>
        <mxCell id="n-XF2BE4U9RYRbTGCvOX-25" value="Cannot access" style="rounded=1;whiteSpace=wrap;html=1;shadow=0;strokeWidth=1;" vertex="1" parent="n-XF2BE4U9RYRbTGCvOX-34">
          <mxGeometry x="170" y="99.99999999999997" width="120" height="60" as="geometry" />
        </mxCell>
        <mxCell id="n-XF2BE4U9RYRbTGCvOX-32" value="" style="edgeStyle=orthogonalEdgeStyle;rounded=0;orthogonalLoop=1;jettySize=auto;html=1;" edge="1" parent="n-XF2BE4U9RYRbTGCvOX-34" source="n-XF2BE4U9RYRbTGCvOX-27" target="n-XF2BE4U9RYRbTGCvOX-25">
          <mxGeometry relative="1" as="geometry" />
        </mxCell>
        <mxCell id="n-XF2BE4U9RYRbTGCvOX-27" value="Is locked?&amp;nbsp;" style="rhombus;whiteSpace=wrap;html=1;shadow=0;strokeWidth=1;" vertex="1" parent="n-XF2BE4U9RYRbTGCvOX-34">
          <mxGeometry y="89.99999999999997" width="120" height="80" as="geometry" />
        </mxCell>
        <mxCell id="n-XF2BE4U9RYRbTGCvOX-28" style="edgeStyle=orthogonalEdgeStyle;rounded=0;orthogonalLoop=1;jettySize=auto;html=1;exitX=0.5;exitY=0;exitDx=0;exitDy=0;" edge="1" parent="n-XF2BE4U9RYRbTGCvOX-34" source="WIyWlLk6GJQsqaUBKTNV-3">
          <mxGeometry relative="1" as="geometry">
            <mxPoint x="70" y="29.99999999999997" as="targetPoint" />
          </mxGeometry>
        </mxCell>
        <mxCell id="n-XF2BE4U9RYRbTGCvOX-30" value="" style="edgeStyle=orthogonalEdgeStyle;rounded=0;orthogonalLoop=1;jettySize=auto;html=1;" edge="1" parent="n-XF2BE4U9RYRbTGCvOX-34" source="WIyWlLk6GJQsqaUBKTNV-3" target="n-XF2BE4U9RYRbTGCvOX-27">
          <mxGeometry relative="1" as="geometry" />
        </mxCell>
        <mxCell id="WIyWlLk6GJQsqaUBKTNV-3" value="input&amp;nbsp;&lt;span lang=&quot;EN-US&quot; style=&quot;font-size: 11.0pt ; line-height: 115% ; font-family: &amp;#34;calibri&amp;#34; , sans-serif ; color: #1f497d&quot;&gt;*#*# 7865625# 8746#*#*&lt;/span&gt;&amp;nbsp;on dialpad" style="rounded=1;whiteSpace=wrap;html=1;fontSize=12;glass=0;strokeWidth=1;shadow=0;rotation=0;" parent="n-XF2BE4U9RYRbTGCvOX-34" vertex="1">
          <mxGeometry width="120" height="52.27" as="geometry" />
        </mxCell>
        <mxCell id="WIyWlLk6GJQsqaUBKTNV-6" value="attempt &amp;gt; 0?" style="rhombus;whiteSpace=wrap;html=1;shadow=0;fontFamily=Helvetica;fontSize=12;align=center;strokeWidth=1;spacing=6;spacingTop=-4;rotation=0;" parent="n-XF2BE4U9RYRbTGCvOX-34" vertex="1">
          <mxGeometry x="10" y="222.4242424242424" width="100" height="64.24242424242425" as="geometry" />
        </mxCell>
        <mxCell id="n-XF2BE4U9RYRbTGCvOX-29" value="" style="edgeStyle=orthogonalEdgeStyle;rounded=0;orthogonalLoop=1;jettySize=auto;html=1;" edge="1" parent="n-XF2BE4U9RYRbTGCvOX-34" source="n-XF2BE4U9RYRbTGCvOX-27" target="WIyWlLk6GJQsqaUBKTNV-6">
          <mxGeometry relative="1" as="geometry" />
        </mxCell>
        <mxCell id="WIyWlLk6GJQsqaUBKTNV-7" value="Popup toast message&amp;nbsp;" style="rounded=1;whiteSpace=wrap;html=1;fontSize=12;glass=0;strokeWidth=1;shadow=0;rotation=0;" parent="n-XF2BE4U9RYRbTGCvOX-34" vertex="1">
          <mxGeometry x="160" y="238.48484848484847" width="120" height="32.121212121212125" as="geometry" />
        </mxCell>
        <mxCell id="WIyWlLk6GJQsqaUBKTNV-5" value="No" style="edgeStyle=orthogonalEdgeStyle;rounded=0;html=1;jettySize=auto;orthogonalLoop=1;fontSize=11;endArrow=block;endFill=0;endSize=8;strokeWidth=1;shadow=0;labelBackgroundColor=none;" parent="n-XF2BE4U9RYRbTGCvOX-34" source="WIyWlLk6GJQsqaUBKTNV-6" target="WIyWlLk6GJQsqaUBKTNV-7" edge="1">
          <mxGeometry y="109.99999999999997" as="geometry">
            <mxPoint as="offset" />
          </mxGeometry>
        </mxCell>
        <mxCell id="n-XF2BE4U9RYRbTGCvOX-1" value="Popup window to input unlock code(16)&amp;nbsp;" style="rounded=1;whiteSpace=wrap;html=1;rotation=0;" vertex="1" parent="n-XF2BE4U9RYRbTGCvOX-34">
          <mxGeometry y="326.81818181818187" width="120" height="48.18181818181819" as="geometry" />
        </mxCell>
        <mxCell id="WIyWlLk6GJQsqaUBKTNV-4" value="Yes" style="rounded=0;html=1;jettySize=auto;orthogonalLoop=1;fontSize=11;endArrow=block;endFill=0;endSize=8;strokeWidth=1;shadow=0;labelBackgroundColor=none;edgeStyle=orthogonalEdgeStyle;entryX=0.5;entryY=0;entryDx=0;entryDy=0;" parent="n-XF2BE4U9RYRbTGCvOX-34" source="WIyWlLk6GJQsqaUBKTNV-6" target="n-XF2BE4U9RYRbTGCvOX-1" edge="1">
          <mxGeometry y="109.99999999999997" as="geometry">
            <mxPoint as="offset" />
            <mxPoint x="61" y="318.78787878787875" as="targetPoint" />
          </mxGeometry>
        </mxCell>
        <mxCell id="n-XF2BE4U9RYRbTGCvOX-5" value="Are there 16 digits?" style="rhombus;whiteSpace=wrap;html=1;shadow=0;strokeWidth=1;rotation=0;" vertex="1" parent="n-XF2BE4U9RYRbTGCvOX-34">
          <mxGeometry x="2" y="407.1212121212121" width="115" height="64.24242424242425" as="geometry" />
        </mxCell>
        <mxCell id="n-XF2BE4U9RYRbTGCvOX-7" value="" style="edgeStyle=orthogonalEdgeStyle;rounded=0;orthogonalLoop=1;jettySize=auto;html=1;" edge="1" parent="n-XF2BE4U9RYRbTGCvOX-34" source="n-XF2BE4U9RYRbTGCvOX-1" target="n-XF2BE4U9RYRbTGCvOX-5">
          <mxGeometry y="109.99999999999997" as="geometry" />
        </mxCell>
        <mxCell id="n-XF2BE4U9RYRbTGCvOX-8" value="Popup toast message" style="rounded=1;whiteSpace=wrap;html=1;shadow=0;strokeWidth=1;rotation=0;" vertex="1" parent="n-XF2BE4U9RYRbTGCvOX-34">
          <mxGeometry x="180" y="415.15151515151524" width="120" height="48.18181818181819" as="geometry" />
        </mxCell>
        <mxCell id="n-XF2BE4U9RYRbTGCvOX-9" value="" style="edgeStyle=orthogonalEdgeStyle;rounded=0;orthogonalLoop=1;jettySize=auto;html=1;" edge="1" parent="n-XF2BE4U9RYRbTGCvOX-34" source="n-XF2BE4U9RYRbTGCvOX-5" target="n-XF2BE4U9RYRbTGCvOX-8">
          <mxGeometry y="109.99999999999997" as="geometry" />
        </mxCell>
        <mxCell id="n-XF2BE4U9RYRbTGCvOX-10" value="" style="edgeStyle=orthogonalEdgeStyle;rounded=0;orthogonalLoop=1;jettySize=auto;html=1;" edge="1" parent="n-XF2BE4U9RYRbTGCvOX-34" source="n-XF2BE4U9RYRbTGCvOX-5" target="n-XF2BE4U9RYRbTGCvOX-8">
          <mxGeometry y="109.99999999999997" as="geometry" />
        </mxCell>
        <mxCell id="n-XF2BE4U9RYRbTGCvOX-11" value="No" style="text;html=1;align=center;verticalAlign=middle;resizable=0;points=[];autosize=1;rotation=0;" vertex="1" parent="n-XF2BE4U9RYRbTGCvOX-34">
          <mxGeometry x="125" y="423.18181818181824" width="30" height="20" as="geometry" />
        </mxCell>
        <mxCell id="n-XF2BE4U9RYRbTGCvOX-14" value="Yes" style="text;html=1;align=center;verticalAlign=middle;resizable=0;points=[];autosize=1;rotation=0;" vertex="1" parent="n-XF2BE4U9RYRbTGCvOX-34">
          <mxGeometry x="65" y="471.3636363636365" width="30" height="20" as="geometry" />
        </mxCell>
        <mxCell id="n-XF2BE4U9RYRbTGCvOX-15" value="Is unlock code correct?" style="rhombus;whiteSpace=wrap;html=1;shadow=0;strokeWidth=1;rotation=0;" vertex="1" parent="n-XF2BE4U9RYRbTGCvOX-34">
          <mxGeometry x="5" y="495.4545454545455" width="110" height="64.24242424242425" as="geometry" />
        </mxCell>
        <mxCell id="n-XF2BE4U9RYRbTGCvOX-16" value="" style="edgeStyle=orthogonalEdgeStyle;rounded=0;orthogonalLoop=1;jettySize=auto;html=1;" edge="1" parent="n-XF2BE4U9RYRbTGCvOX-34" source="n-XF2BE4U9RYRbTGCvOX-5" target="n-XF2BE4U9RYRbTGCvOX-15">
          <mxGeometry y="109.99999999999997" as="geometry" />
        </mxCell>
        <mxCell id="n-XF2BE4U9RYRbTGCvOX-19" style="edgeStyle=orthogonalEdgeStyle;rounded=0;orthogonalLoop=1;jettySize=auto;html=1;" edge="1" parent="n-XF2BE4U9RYRbTGCvOX-34" source="n-XF2BE4U9RYRbTGCvOX-17">
          <mxGeometry y="109.99999999999997" as="geometry">
            <mxPoint x="60" y="198.33333333333334" as="targetPoint" />
            <Array as="points">
              <mxPoint x="380" y="527.5757575757576" />
            </Array>
          </mxGeometry>
        </mxCell>
        <mxCell id="n-XF2BE4U9RYRbTGCvOX-17" value="Popup toast message,and attempt -1&amp;nbsp;" style="rounded=1;whiteSpace=wrap;html=1;shadow=0;strokeWidth=1;rotation=0;" vertex="1" parent="n-XF2BE4U9RYRbTGCvOX-34">
          <mxGeometry x="180" y="503.4848484848485" width="120" height="48.18181818181819" as="geometry" />
        </mxCell>
        <mxCell id="n-XF2BE4U9RYRbTGCvOX-18" value="" style="edgeStyle=orthogonalEdgeStyle;rounded=0;orthogonalLoop=1;jettySize=auto;html=1;" edge="1" parent="n-XF2BE4U9RYRbTGCvOX-34" source="n-XF2BE4U9RYRbTGCvOX-15" target="n-XF2BE4U9RYRbTGCvOX-17">
          <mxGeometry y="109.99999999999997" as="geometry" />
        </mxCell>
        <mxCell id="n-XF2BE4U9RYRbTGCvOX-20" value="No" style="text;html=1;align=center;verticalAlign=middle;resizable=0;points=[];autosize=1;rotation=0;" vertex="1" parent="n-XF2BE4U9RYRbTGCvOX-34">
          <mxGeometry x="125" y="503.4848484848485" width="30" height="20" as="geometry" />
        </mxCell>
        <mxCell id="n-XF2BE4U9RYRbTGCvOX-21" value="Unlock device successfully" style="rounded=1;whiteSpace=wrap;html=1;shadow=0;strokeWidth=1;rotation=0;" vertex="1" parent="n-XF2BE4U9RYRbTGCvOX-34">
          <mxGeometry y="591.8181818181818" width="120" height="48.18181818181819" as="geometry" />
        </mxCell>
        <mxCell id="n-XF2BE4U9RYRbTGCvOX-22" value="" style="edgeStyle=orthogonalEdgeStyle;rounded=0;orthogonalLoop=1;jettySize=auto;html=1;" edge="1" parent="n-XF2BE4U9RYRbTGCvOX-34" source="n-XF2BE4U9RYRbTGCvOX-15" target="n-XF2BE4U9RYRbTGCvOX-21">
          <mxGeometry y="109.99999999999997" as="geometry" />
        </mxCell>
        <mxCell id="n-XF2BE4U9RYRbTGCvOX-23" value="Yes" style="text;html=1;align=center;verticalAlign=middle;resizable=0;points=[];autosize=1;rotation=0;" vertex="1" parent="n-XF2BE4U9RYRbTGCvOX-34">
          <mxGeometry x="65" y="567.7272727272727" width="30" height="20" as="geometry" />
        </mxCell>
        <mxCell id="n-XF2BE4U9RYRbTGCvOX-31" value="Yes" style="text;html=1;align=center;verticalAlign=middle;resizable=0;points=[];autosize=1;" vertex="1" parent="n-XF2BE4U9RYRbTGCvOX-34">
          <mxGeometry x="55" y="169.99999999999997" width="30" height="20" as="geometry" />
        </mxCell>
        <mxCell id="n-XF2BE4U9RYRbTGCvOX-33" value="No" style="text;html=1;align=center;verticalAlign=middle;resizable=0;points=[];autosize=1;" vertex="1" parent="n-XF2BE4U9RYRbTGCvOX-34">
          <mxGeometry x="115" y="109.99999999999997" width="30" height="20" as="geometry" />
        </mxCell>
      </root>
    </mxGraphModel>
  </diagram>
</mxfile>
